<svg width="279" height="342" viewBox="0 0 279 342" fill="none" xmlns="http://www.w3.org/2000/svg">
<path d="M0 0H279V278.523H0V0Z" fill="#00A072"/>
<path d="M279 0V278.523H0V0H279ZM12.9767 265.568H266.023V12.9545H12.9767V265.568Z" fill="black"/>
<path d="M81.7535 140.881C80.6721 139.585 79.5042 138.657 78.2498 138.095C76.9953 137.491 75.6112 137.189 74.0972 137.189C72.4102 137.189 70.9179 137.491 69.6202 138.095C68.3226 138.657 67.2412 139.456 66.376 140.492C65.5542 141.528 64.927 142.738 64.4944 144.119C64.0619 145.458 63.8456 146.905 63.8456 148.459C63.8456 150.014 64.0835 151.482 64.5593 152.864C65.0784 154.202 65.7705 155.39 66.6356 156.426C67.5439 157.462 68.6253 158.283 69.8798 158.887C71.1342 159.449 72.54 159.73 74.0972 159.73C77.4279 159.73 80.0016 158.477 81.8184 155.973L85.5816 159.535C84.1109 161.219 82.3807 162.45 80.3909 163.227C78.4012 164.005 76.3032 164.393 74.0972 164.393C71.7614 164.393 69.6202 164.005 67.6737 163.227C65.7272 162.45 64.0619 161.349 62.6777 159.924C61.3367 158.499 60.277 156.815 59.4984 154.872C58.763 152.928 58.3953 150.791 58.3953 148.459C58.3953 146.17 58.763 144.055 59.4984 142.111C60.277 140.168 61.3584 138.484 62.7425 137.059C64.1267 135.634 65.7705 134.533 67.6737 133.756C69.6202 132.935 71.7614 132.525 74.0972 132.525C76.3465 132.525 78.466 132.914 80.4558 133.691C82.4888 134.468 84.2623 135.677 85.7763 137.318L81.7535 140.881Z" fill="black"/>
<path d="M91.4485 114.648H96.5095V137.512H96.6392C96.9853 136.908 97.4611 136.325 98.0667 135.764C98.6722 135.159 99.386 134.619 100.208 134.144C101.073 133.669 102.025 133.281 103.063 132.978C104.101 132.676 105.204 132.525 106.372 132.525C108.362 132.525 110.07 132.827 111.498 133.432C112.968 134.036 114.179 134.878 115.131 135.958C116.083 137.037 116.775 138.355 117.207 139.909C117.683 141.42 117.921 143.083 117.921 144.897V163.616H112.86V145.415C112.86 142.867 112.298 140.859 111.173 139.391C110.049 137.923 108.297 137.189 105.918 137.189C104.274 137.189 102.846 137.469 101.635 138.031C100.467 138.592 99.4941 139.391 98.7155 140.427C97.9801 141.464 97.4178 142.694 97.0285 144.119C96.6825 145.544 96.5095 147.12 96.5095 148.848V163.616H91.4485V114.648Z" fill="black"/>
<path d="M154.623 158.11C152.807 160.442 150.817 162.083 148.654 163.033C146.491 163.94 143.983 164.393 141.128 164.393C138.749 164.393 136.607 163.983 134.704 163.162C132.801 162.299 131.179 161.155 129.838 159.73C128.54 158.305 127.524 156.62 126.788 154.677C126.096 152.734 125.75 150.661 125.75 148.459C125.75 146.127 126.14 143.99 126.918 142.047C127.697 140.06 128.778 138.376 130.162 136.994C131.546 135.569 133.19 134.468 135.093 133.691C136.997 132.914 139.073 132.525 141.322 132.525C143.442 132.525 145.388 132.892 147.162 133.626C148.935 134.317 150.449 135.353 151.704 136.735C153.001 138.074 153.996 139.736 154.688 141.723C155.38 143.666 155.726 145.89 155.726 148.394V150.014H131.2C131.287 151.309 131.59 152.561 132.109 153.77C132.671 154.936 133.385 155.973 134.25 156.88C135.115 157.743 136.132 158.434 137.3 158.952C138.467 159.47 139.743 159.73 141.128 159.73C143.334 159.73 145.194 159.341 146.708 158.564C148.222 157.786 149.584 156.642 150.795 155.131L154.623 158.11ZM150.276 145.739C150.19 143.148 149.346 141.075 147.746 139.52C146.145 137.966 143.939 137.189 141.128 137.189C138.316 137.189 136.045 137.966 134.315 139.52C132.585 141.075 131.546 143.148 131.2 145.739H150.276Z" fill="black"/>
<path d="M185.162 140.881C184.081 139.585 182.913 138.657 181.658 138.095C180.404 137.491 179.02 137.189 177.506 137.189C175.819 137.189 174.326 137.491 173.029 138.095C171.731 138.657 170.65 139.456 169.784 140.492C168.963 141.528 168.335 142.738 167.903 144.119C167.47 145.458 167.254 146.905 167.254 148.459C167.254 150.014 167.492 151.482 167.968 152.864C168.487 154.202 169.179 155.39 170.044 156.426C170.952 157.462 172.034 158.283 173.288 158.887C174.543 159.449 175.948 159.73 177.506 159.73C180.836 159.73 183.41 158.477 185.227 155.973L188.99 159.535C187.519 161.219 185.789 162.45 183.799 163.227C181.81 164.005 179.712 164.393 177.506 164.393C175.17 164.393 173.029 164.005 171.082 163.227C169.136 162.45 167.47 161.349 166.086 159.924C164.745 158.499 163.685 156.815 162.907 154.872C162.171 152.928 161.804 150.791 161.804 148.459C161.804 146.17 162.171 144.055 162.907 142.111C163.685 140.168 164.767 138.484 166.151 137.059C167.535 135.634 169.179 134.533 171.082 133.756C173.029 132.935 175.17 132.525 177.506 132.525C179.755 132.525 181.874 132.914 183.864 133.691C185.897 134.468 187.671 135.677 189.185 137.318L185.162 140.881Z" fill="black"/>
<path d="M194.857 114.648H199.918V146.645L213.738 133.302H220.94L206.276 147.099L222.433 163.616H214.971L199.918 147.682V163.616H194.857V114.648Z" fill="black"/>
<path d="M18.2206 326.392H13.2952L0.648837 295.957H5.90705L15.8245 321.58H15.9576L25.875 295.957H30.8669L18.2206 326.392Z" fill="black"/>
<path d="M68.1685 308.833C68.1685 305.928 67.281 303.587 65.5061 301.81C63.7312 299.989 61.2463 299.078 58.0514 299.078C56.6314 299.078 55.2559 299.36 53.9247 299.924C52.5935 300.444 51.4176 301.159 50.397 302.07C49.4208 302.98 48.6221 304.021 48.0009 305.191C47.424 306.362 47.1356 307.576 47.1356 308.833H68.1685ZM47.0025 312.345C47.1356 313.862 47.5128 315.293 48.134 316.637C48.7552 317.981 49.5761 319.152 50.5967 320.149C51.6173 321.103 52.7932 321.861 54.1244 322.425C55.4556 322.989 56.8977 323.271 58.4507 323.271C60.8025 323.271 62.8215 322.75 64.5077 321.71C66.2382 320.626 67.5472 319.39 68.4347 318.003L71.8293 320.734C69.9656 323.032 67.9022 324.68 65.6392 325.677C63.4205 326.674 61.0244 327.172 58.4507 327.172C56.1433 327.172 53.9912 326.782 51.9945 326.002C50.042 325.178 48.3559 324.051 46.9359 322.62C45.516 321.189 44.3845 319.499 43.5414 317.548C42.7427 315.597 42.3433 313.472 42.3433 311.174C42.3433 308.877 42.7427 306.752 43.5414 304.801C44.3401 302.85 45.4494 301.159 46.8694 299.729C48.2893 298.298 49.9533 297.192 51.8613 296.412C53.7694 295.588 55.8327 295.176 58.0514 295.176C60.4032 295.176 62.5109 295.588 64.3746 296.412C66.2382 297.236 67.7913 298.341 69.0337 299.729C70.3206 301.073 71.2968 302.677 71.9624 304.541C72.628 306.362 72.9608 308.313 72.9608 310.394V312.345H47.0025Z" fill="black"/>
<path d="M92.4404 295.957C92.5292 296.78 92.5735 297.604 92.5735 298.428C92.6179 299.208 92.6401 300.01 92.6401 300.834H92.7732C93.2613 300.01 93.8825 299.252 94.6369 298.558C95.3912 297.864 96.2343 297.279 97.1661 296.802C98.098 296.282 99.0742 295.892 100.095 295.632C101.16 295.328 102.202 295.176 103.223 295.176C107.217 295.176 110.167 296.217 112.076 298.298C113.984 300.336 114.938 303.262 114.938 307.077V326.392H110.545V309.549C110.545 306.167 109.946 303.587 108.748 301.81C107.549 299.989 105.331 299.078 102.092 299.078C101.87 299.078 101.248 299.165 100.228 299.338C99.2073 299.512 98.1202 299.989 96.9665 300.769C95.8571 301.55 94.8587 302.72 93.9713 304.281C93.0838 305.842 92.6401 308.009 92.6401 310.784V326.392H88.2471V302.655C88.2471 301.831 88.2028 300.791 88.114 299.534C88.0696 298.276 88.0031 297.084 87.9143 295.957H92.4404Z" fill="black"/>
<path d="M135.216 311.174C135.216 312.865 135.482 314.448 136.015 315.922C136.591 317.396 137.39 318.675 138.411 319.759C139.431 320.843 140.652 321.71 142.072 322.36C143.536 322.967 145.178 323.271 146.997 323.271C148.772 323.271 150.414 322.967 151.922 322.36C153.475 321.71 154.807 320.843 155.916 319.759C157.025 318.675 157.891 317.396 158.512 315.922C159.133 314.448 159.444 312.865 159.444 311.174C159.444 309.484 159.133 307.901 158.512 306.427C157.891 304.953 157.025 303.674 155.916 302.59C154.807 301.506 153.475 300.661 151.922 300.054C150.414 299.403 148.772 299.078 146.997 299.078C145.178 299.078 143.536 299.403 142.072 300.054C140.652 300.661 139.431 301.506 138.411 302.59C137.39 303.674 136.591 304.953 136.015 306.427C135.482 307.901 135.216 309.484 135.216 311.174ZM163.637 326.392H159.244V321.32H159.111C158.401 322.36 157.558 323.249 156.582 323.986C155.605 324.723 154.585 325.33 153.52 325.807C152.455 326.284 151.346 326.631 150.192 326.847C149.083 327.064 148.018 327.172 146.997 327.172C144.556 327.172 142.316 326.782 140.274 326.002C138.278 325.178 136.547 324.051 135.083 322.62C133.618 321.189 132.465 319.499 131.622 317.548C130.823 315.597 130.424 313.472 130.424 311.174C130.424 308.877 130.823 306.752 131.622 304.801C132.465 302.85 133.618 301.159 135.083 299.729C136.547 298.298 138.278 297.192 140.274 296.412C142.316 295.588 144.556 295.176 146.997 295.176C148.018 295.176 149.083 295.285 150.192 295.501C151.346 295.718 152.455 296.065 153.52 296.542C154.585 297.019 155.605 297.626 156.582 298.363C157.558 299.1 158.401 299.989 159.111 301.029H159.244V277.227H163.637V326.392Z" fill="black"/>
<path d="M186.955 284.251C186.955 285.161 186.622 285.92 185.956 286.527C185.291 287.091 184.559 287.372 183.76 287.372C182.961 287.372 182.229 287.091 181.563 286.527C180.898 285.92 180.565 285.161 180.565 284.251C180.565 283.34 180.898 282.603 181.563 282.04C182.229 281.433 182.961 281.129 183.76 281.129C184.559 281.129 185.291 281.433 185.956 282.04C186.622 282.603 186.955 283.34 186.955 284.251ZM185.956 326.392H181.563V295.957H185.956V326.392Z" fill="black"/>
<path d="M208.07 295.957C208.158 296.78 208.203 297.604 208.203 298.428C208.247 299.208 208.269 300.01 208.269 300.834H208.402C208.891 300.01 209.512 299.252 210.266 298.558C211.021 297.864 211.864 297.279 212.795 296.802C213.727 296.282 214.703 295.892 215.724 295.632C216.789 295.328 217.832 295.176 218.852 295.176C222.846 295.176 225.797 296.217 227.705 298.298C229.613 300.336 230.567 303.262 230.567 307.077V326.392H226.174V309.549C226.174 306.167 225.575 303.587 224.377 301.81C223.179 299.989 220.96 299.078 217.721 299.078C217.499 299.078 216.878 299.165 215.857 299.338C214.837 299.512 213.749 299.989 212.596 300.769C211.486 301.55 210.488 302.72 209.601 304.281C208.713 305.842 208.269 308.009 208.269 310.784V326.392H203.876V302.655C203.876 301.831 203.832 300.791 203.743 299.534C203.699 298.276 203.632 297.084 203.544 295.957H208.07Z" fill="black"/>
<path d="M251.378 310.784C251.378 312.388 251.666 313.906 252.243 315.337C252.864 316.724 253.685 317.96 254.706 319.043C255.771 320.084 256.991 320.929 258.366 321.58C259.786 322.187 261.317 322.49 262.959 322.49C264.557 322.49 266.065 322.208 267.485 321.645C268.949 321.081 270.236 320.301 271.346 319.304C272.455 318.263 273.298 317.027 273.875 315.597C274.496 314.166 274.785 312.562 274.74 310.784C274.74 309.18 274.474 307.684 273.941 306.297C273.409 304.866 272.632 303.631 271.612 302.59C270.591 301.506 269.349 300.661 267.884 300.054C266.42 299.403 264.778 299.078 262.959 299.078C261.317 299.078 259.786 299.403 258.366 300.054C256.991 300.661 255.771 301.506 254.706 302.59C253.685 303.631 252.864 304.866 252.243 306.297C251.666 307.684 251.378 309.18 251.378 310.784ZM250.579 332.505C251.866 334.196 253.53 335.54 255.571 336.537C257.656 337.578 259.964 338.098 262.493 338.098C264.712 338.098 266.598 337.773 268.151 337.123C269.704 336.516 270.946 335.67 271.878 334.586C272.854 333.502 273.542 332.223 273.941 330.749C274.385 329.319 274.607 327.779 274.607 326.132V320.669H274.474C273.054 322.75 271.323 324.224 269.282 325.091C267.241 325.959 265.089 326.392 262.826 326.392C260.563 326.392 258.433 326.002 256.436 325.221C254.484 324.441 252.775 323.379 251.311 322.035C249.847 320.648 248.693 319 247.85 317.092C247.007 315.185 246.585 313.125 246.585 310.914C246.585 308.703 246.985 306.644 247.783 304.736C248.582 302.829 249.669 301.159 251.045 299.729C252.465 298.298 254.129 297.192 256.037 296.412C257.989 295.588 260.119 295.176 262.427 295.176C263.358 295.176 264.335 295.263 265.355 295.436C266.42 295.61 267.463 295.913 268.484 296.347C269.548 296.78 270.591 297.387 271.612 298.168C272.632 298.905 273.586 299.859 274.474 301.029H274.607V295.957H279V326.132C279 327.779 278.778 329.535 278.334 331.4C277.935 333.264 277.114 334.976 275.872 336.537C274.674 338.098 272.987 339.399 270.813 340.439C268.639 341.48 265.799 342 262.293 342C259.187 342 256.414 341.501 253.974 340.504C251.533 339.507 249.314 337.968 247.318 335.887L250.579 332.505Z" fill="black"/>
<path d="M214.908 218.059L184.55 171.535H209.978L229.569 205.671L248.381 171.535H272.902L243.191 217.646L276.405 268.988H250.976L228.531 229.759L206.735 268.988H182.733L214.908 218.059Z" fill="black"/>
<path d="M79.1974 220.261C79.1974 212.462 80.4083 205.396 82.8301 199.064C85.3384 192.732 88.7981 187.364 93.2092 182.96C97.6204 178.463 102.853 175.022 108.908 172.636C114.962 170.251 121.579 169.058 128.758 169.058C135.937 169.058 142.553 170.251 148.608 172.636C154.662 175.022 159.895 178.463 164.306 182.96C168.717 187.364 172.134 192.732 174.556 199.064C177.064 205.396 178.318 212.462 178.318 220.261C178.318 228.061 177.064 235.127 174.556 241.459C172.134 247.79 168.717 253.204 164.306 257.701C159.895 262.105 154.662 265.501 148.608 267.887C142.553 270.272 135.937 271.465 128.758 271.465C121.579 271.465 114.962 270.272 108.908 267.887C102.853 265.501 97.6204 262.105 93.2092 257.701C88.7981 253.204 85.3384 247.79 82.8301 241.459C80.4083 235.127 79.1974 228.061 79.1974 220.261ZM100.215 220.261C100.215 224.85 100.864 229.071 102.161 232.925C103.545 236.687 105.491 239.991 107.999 242.835C110.508 245.588 113.492 247.745 116.951 249.304C120.498 250.864 124.433 251.644 128.758 251.644C133.082 251.644 136.974 250.864 140.434 249.304C143.98 247.745 147.008 245.588 149.516 242.835C152.024 239.991 153.927 236.687 155.224 232.925C156.608 229.071 157.3 224.85 157.3 220.261C157.3 215.765 156.608 211.59 155.224 207.736C153.927 203.882 152.024 200.578 149.516 197.825C147.008 194.981 143.98 192.778 140.434 191.218C136.974 189.658 133.082 188.878 128.758 188.878C124.433 188.878 120.498 189.658 116.951 191.218C113.492 192.778 110.508 194.981 107.999 197.825C105.491 200.578 103.545 203.882 102.161 207.736C100.864 211.59 100.215 215.765 100.215 220.261Z" fill="black"/>
<path d="M0 171.535H34.2511C38.2297 171.535 42.2084 171.856 46.187 172.499C50.2522 173.049 53.8849 174.242 57.0851 176.077C60.2853 177.821 62.8801 180.299 64.8694 183.51C66.8588 186.722 67.8534 190.989 67.8534 196.311C67.8534 201.817 66.3831 206.405 63.4423 210.076C60.5881 213.654 56.7824 216.224 52.0253 217.784V218.059C55.0525 218.518 57.777 219.436 60.1988 220.812C62.7071 222.097 64.8262 223.794 66.556 225.905C68.3724 227.924 69.7563 230.309 70.7077 233.062C71.6591 235.815 72.1348 238.752 72.1348 241.872C72.1348 247.01 71.0969 251.323 69.0211 254.81C66.9453 258.205 64.264 260.958 60.9773 263.069C57.6906 265.179 53.9714 266.694 49.8197 267.611C45.7546 268.529 41.6894 268.988 37.6243 268.988H0V171.535ZM20.2393 210.489H34.8998C36.4566 210.489 37.9702 210.305 39.4406 209.938C40.9975 209.571 42.3814 208.975 43.5923 208.149C44.8032 207.323 45.7546 206.222 46.4465 204.845C47.2249 203.469 47.6142 201.817 47.6142 199.89C47.6142 197.871 47.1817 196.219 46.3168 194.935C45.5383 193.558 44.5004 192.503 43.203 191.769C41.9057 191.035 40.4353 190.53 38.7919 190.255C37.1486 189.888 35.5485 189.704 33.9916 189.704H20.2393V210.489ZM20.2393 250.819H38.4027C39.9596 250.819 41.5164 250.635 43.0733 250.268C44.7167 249.901 46.187 249.259 47.4844 248.341C48.7818 247.423 49.8197 246.23 50.5982 244.762C51.4631 243.294 51.8956 241.505 51.8956 239.394C51.8956 237.1 51.3333 235.265 50.2089 233.888C49.171 232.42 47.8304 231.319 46.187 230.585C44.5437 229.851 42.7706 229.346 40.8677 229.071C38.9649 228.795 37.1918 228.658 35.5485 228.658H20.2393V250.819Z" fill="black"/>
</svg>
